<?xml version="1.0" encoding="UTF-8"?>

<svg xmlns="http://www.w3.org/2000/svg" viewBox="0 0 3349.23 800" aria-label="Euricom">
  <defs>
    
  </defs>
  <g>
    <path fill="#00FF00" d="M124.92,124.93h218.83V0H109.96C49.22,0,0,49.22,0,109.97v233.79h124.92V124.93Z"></path>
    <path fill="#00FF00" d="M489.69,400c0,49.54-40.15,89.69-89.69,89.69s-89.71-40.15-89.71-89.69,40.18-89.69,89.71-89.69,89.69,40.15,89.69,89.69"></path>
    <path fill="#00FF00" d="M690.04,0h-233.79v124.92h218.83v218.83h124.92V109.96c0-60.74-49.24-109.96-109.96-109.96"></path>
    <path fill="#00FF00" d="M675.07,456.25v218.83h-218.83v124.92h233.79c60.74,0,109.96-49.22,109.96-109.96v-233.79h-124.92Z"></path>
    <path fill="#00FF00" d="M124.92,675.07v-218.83H0v233.79c0,60.74,49.22,109.96,109.96,109.96h233.79v-124.92H124.92Z"></path>
  </g>
  <g>
    <path fill="#FFFFFF" d="M1696.11,499.27V185.45h-74.51v171.26c0,21.64-2.97,39.43-8.84,52.88-11.71,25.74-33.52,38.77-64.86,38.77-24.97,0-42.08-9.49-50.84-28.21-4.71-10.1-7.08-25.02-7.08-44.33v-190.37h-75.42v190.37c0,36.17,4.52,63.74,13.42,81.97,15.54,32.29,46.42,48.65,91.79,48.65,15.92,0,29.95-2.09,41.68-6.22,11.62-4.1,23.95-11.97,36.63-23.36,3.94-3.4,7.39-7.4,10.24-11.89,3.37-5.27,5.38-8.28,6.33-9.48l10.53-13.2v56.98h70.92Z"></path>
    <path fill="#FFFFFF" d="M1939.62,252.21c2.68,0,6.1.1,10.44.3,2.52.13,5.27.32,8.15.57v-75.12c-.86-.06-1.52-.11-1.96-.14-.93-.08-2.09-.13-3.48-.13-23.95,0-43.59,6.27-58.37,18.65-9.22,7.52-20.34,21.99-33.08,43.03l-10.96,18.11v-72.03h-69.44v313.81h73.91v-149.73c0-26.93,3.56-47.36,10.55-60.71,12.8-24.3,37.78-36.62,74.24-36.62"></path>
    <rect fill="#FFFFFF" x="2029.98" y="185.46" width="74.51" height="313.82"></rect>
    <path fill="#FFFFFF" d="M2417.99,385.94c-16.59,33.01-50.92,54.27-87.9,54.27-54.22,0-98.34-44.12-98.34-98.34s44.12-98.34,98.34-98.34c36.99,0,71.31,21.25,87.9,54.27l58.96-34.03c-28.96-54.46-85.09-88.22-146.86-88.22-91.7,0-166.31,74.61-166.31,166.33s74.61,166.33,166.31,166.33c61.77,0,117.9-33.76,146.86-88.22l-58.96-34.03Z"></path>
    <path fill="#FFFFFF" d="M2677.08,437.99c-53.01,0-96.12-43.11-96.12-96.12s43.11-96.12,96.12-96.12,96.12,43.13,96.12,96.12-43.11,96.12-96.12,96.12M2677.08,176.29c-91.3,0-165.58,74.28-165.58,165.58s74.28,165.59,165.58,165.59,165.58-74.29,165.58-165.59-74.28-165.58-165.58-165.58"></path>
    <path fill="#FFFFFF" d="M3219.51,238.76c22.64,0,38.49,8.74,47.12,25.98,4.37,8.76,6.59,19.9,6.59,33.11v201.43h75.44l.57-199.34c0-20.63-.97-36.44-2.89-47.02-2.98-15.45-8.81-28.64-17.31-39.17-10.64-13.08-22.61-22.34-35.53-27.51-13.18-5.28-26.73-7.95-40.22-7.95-20.47,0-39.25,4.29-55.81,12.76-15.43,8.38-28.63,21.78-39.17,39.87l-6.1,10.45-4.5-11.25c-5.97-14.92-14.79-27.25-26.23-36.67-14.09-10.05-33.19-15.17-56.71-15.17-24.83,0-45.22,6.02-60.63,17.89-8.74,6.7-18.32,18.33-28.47,34.59l-10.91,17.54v-62.24h-70.94v313.22h74.51v-190.07c0-18.59,2.54-32.98,7.55-42.76,9.45-17.77,27.7-26.79,54.23-26.79,23.34,0,39.32,9.11,47.5,27.06,4.39,9.64,6.51,24.22,6.51,44.58v187.98h73.92v-187.98c0-15.3,2.49-28.69,7.39-39.76,9.99-21.75,28.18-32.77,54.09-32.77"></path>
    <path fill="#FFFFFF" d="M1207.88,173.15c-97.85,0-163.61,67.89-163.61,168.92s67.28,169.52,163.61,169.52c21.77,0,42.51-3.69,61.38-10.68,35.44-13.13,64.04-34.34,79.7-68.73l2.46-5.39h-70.63c-18.01,21.55-41.85,26.27-72.91,26.27-49.25,0-85.17-31.68-91.51-80.7l-.51-3.96h249l.31-2.04c1.48-9.91,2.17-20.07,2.17-31.96,0-94.94-65.57-161.24-159.45-161.24ZM1116.49,312.21l.75-4.16c8.43-46.37,42.85-76.34,87.68-76.34,49.66,0,86.68,31.54,90.05,76.71l.26,3.79h-178.74Z"></path>
    <path fill="#FFFFFF" d="M2109.15,101.42c0,23.14-18.76,41.9-41.9,41.9s-41.92-18.76-41.92-41.9,18.76-41.9,41.92-41.9,41.9,18.75,41.9,41.9"></path>
  </g>
</svg>